<svg xmlns="http://www.w3.org/2000/svg" viewBox="0 0 365 100">
  <path d="M 50 50 L 63.5 26.6 Q 50 10 36.5 26.6 Z" fill="#8B5CF6"/>
  <path d="M 50 50 L 77 50 Q 84.6 30 63.5 26.6 Z" fill="#8B5CF6"/>
  <path d="M 50 50 L 63.5 73.4 Q 84.6 70 77 50 Z" fill="#8B5CF6"/>
  <path d="M 50 50 L 36.5 73.4 Q 50 90 63.5 73.4 Z" fill="#8B5CF6"/>
  <path d="M 50 50 L 23 50 Q 15.4 70 36.5 73.4 Z" fill="#8B5CF6"/>
  <path d="M 50 50 L 36.5 26.6 Q 15.4 30 23 50 Z" fill="#8B5CF6"/>
  <circle cx="42" cy="40" r="6" fill="white" opacity="0.3"/>
  <g fill="#525D69" stroke="#525D69" stroke-width="2" stroke-linejoin="round" stroke-linecap="round" paint-order="stroke fill" transform="translate(-25,0)">
  <path d="M 145.8 32.5 Q 147.3 33.2 147.5 34.8 Q 147.8 36.4 146.7 37.7 Q 146.0 38.7 144.8 38.8 Q 143.7 38.9 142.5 38.3 Q 141.2 37.7 139.7 37.4 Q 138.2 37.0 136.5 37.0 Q 133.5 37.0 131.1 38.0 Q 128.7 39.0 127.0 40.7 Q 125.3 42.5 124.5 44.9 Q 123.6 47.4 123.6 50.3 Q 123.6 53.7 124.6 56.3 Q 125.5 58.8 127.3 60.5 Q 129.0 62.2 131.4 63.0 Q 133.8 63.8 136.5 63.8 Q 138.1 63.8 139.6 63.5 Q 141.1 63.2 142.5 62.5 Q 143.7 61.9 144.8 62.1 Q 146.0 62.3 146.8 63.3 Q 147.9 64.7 147.6 66.2 Q 147.3 67.7 145.9 68.4 Q 144.4 69.1 142.9 69.6 Q 141.3 70.1 139.7 70.3 Q 138.2 70.6 136.5 70.6 Q 132.5 70.6 128.8 69.3 Q 125.2 68.0 122.4 65.4 Q 119.5 62.9 117.9 59.1 Q 116.3 55.3 116.3 50.3 Q 116.3 45.9 117.7 42.3 Q 119.2 38.6 122.0 35.9 Q 124.7 33.3 128.4 31.8 Q 132.1 30.3 136.5 30.3 Q 139.0 30.3 141.4 30.8 Q 143.7 31.4 145.8 32.5 Z"/>
  <path d="M 189.3 50.3 Q 189.3 54.5 187.9 58.2 Q 186.5 61.8 184.0 64.6 Q 181.4 67.4 177.9 69.0 Q 174.4 70.6 170.2 70.6 Q 166.0 70.6 162.5 69.0 Q 159.0 67.4 156.5 64.6 Q 153.9 61.8 152.5 58.2 Q 151.1 54.5 151.1 50.3 Q 151.1 46.1 152.5 42.4 Q 153.9 38.7 156.5 35.9 Q 159.0 33.2 162.5 31.6 Q 166.0 30.0 170.2 30.0 Q 174.4 30.0 177.9 31.6 Q 181.4 33.2 184.0 35.9 Q 186.5 38.7 187.9 42.4 Q 189.3 46.1 189.3 50.3 Z M 181.7 50.3 Q 184.9 41.8 176.0 40.3 Q 170.2 33.3 164.4 40.3 Q 155.5 41.8 158.7 50.3 Q 155.5 58.8 164.4 60.3 Q 170.2 67.3 176.0 60.3 Q 184.9 58.8 181.7 50.3 Z"/>
  <path d="M 197.9 30.5 Q 198.7 30.5 199.5 30.9 Q 200.4 31.4 200.9 32.0 L 214.5 53.1 L 211.7 53.0 L 225.8 32.0 Q 226.8 30.5 228.5 30.5 Q 229.9 30.5 230.9 31.5 Q 232.0 32.4 232.0 33.9 V 66.6 Q 232.0 68.0 231.1 69.0 Q 230.1 70.0 228.5 70.0 Q 226.9 70.0 226.0 69.0 Q 225.0 68.0 225.0 40.0 L 227.2 40.5 L 215.7 58.1 Q 215.2 58.7 214.4 59.1 Q 213.6 59.6 212.9 59.5 Q 212.1 59.6 211.4 59.1 Q 210.6 58.7 210.1 58.1 L 199.3 41.0 L 200.8 38.1 V 66.6 Q 200.8 68.0 199.9 69.0 Q 199.0 70.0 197.5 70.0 Q 196.1 70.0 195.2 69.0 Q 194.3 68.0 194.3 66.6 V 33.9 Q 194.3 32.5 195.4 31.5 Q 196.4 30.5 197.9 30.5 Z"/>
  <path d="M 255.3 30.6 Q 258.2 30.6 260.7 32.3 Q 263.3 33.9 264.9 36.8 Q 266.5 39.7 266.5 43.2 Q 266.5 46.7 264.9 49.6 Q 263.3 52.5 260.7 54.2 Q 258.2 55.9 255.3 55.9 H 244.9 L 245.5 54.9 V 66.6 Q 245.5 68.0 244.5 69.0 Q 243.6 70.0 242.2 70.0 Q 240.8 70.0 239.9 69.0 Q 239.0 68.0 239.0 66.6 V 34.0 Q 239.0 32.5 240.0 31.5 Q 240.9 30.6 242.4 30.6 Z M 255.3 49.5 Q 256.3 49.5 257.3 48.6 Q 258.4 47.7 259.0 46.3 Q 259.7 44.8 259.7 43.2 Q 259.7 41.6 259.0 40.2 Q 258.4 38.8 257.3 37.9 Q 256.3 37.0 255.3 37.0 H 244.8 L 245.5 36.0 V 50.4 L 244.8 49.5 Z"/>
  <path d="M 275.9 30.6 H 294.8 Q 296.2 30.6 297.2 31.5 Q 298.2 32.4 298.2 33.9 Q 298.2 35.3 297.2 36.2 Q 296.2 37.0 294.8 37.0 H 279.0 L 279.5 36.1 V 47.1 L 279.0 46.6 H 292.2 Q 293.7 46.6 294.7 47.5 Q 295.7 48.5 295.7 49.9 Q 295.7 51.4 294.7 52.2 Q 293.7 53.1 292.2 53.1 H 279.2 L 279.5 52.6 V 64.0 L 279.0 63.5 H 294.8 Q 296.2 63.5 297.2 64.5 Q 298.2 65.5 298.2 66.8 Q 298.2 68.2 297.2 69.1 Q 296.2 70.0 294.8 70.0 H 275.9 Q 274.4 70.0 273.4 69.0 Q 272.5 68.0 272.5 66.6 V 34.0 Q 272.5 32.5 273.4 31.5 Q 274.4 30.6 275.9 30.6 Z"/>
  <path d="M 311.2 66.6 Q 311.2 68.0 310.2 69.0 Q 309.1 70.0 307.7 70.0 Q 306.1 70.0 305.1 69.0 Q 304.2 68.0 304.2 66.6 V 34.0 Q 304.2 32.5 305.2 31.5 Q 306.2 30.6 307.8 30.6 Q 309.1 30.6 310.2 31.5 Q 311.2 32.5 311.2 34.0 Z"/>
  <path d="M 332.5 70.0 Q 331.0 70.0 329.9 69.0 Q 328.9 68.0 328.9 66.6 V 33.9 H 336.3 V 66.6 Q 336.3 68.0 335.2 69.0 Q 334.2 70.0 332.5 70.0 Z M 320.1 37.0 Q 318.6 37.0 317.6 36.1 Q 316.6 35.2 316.6 33.8 Q 316.6 32.3 317.6 31.4 Q 318.6 30.6 320.1 30.6 H 345.1 Q 346.6 30.6 347.5 31.5 Q 348.5 32.4 348.5 33.8 Q 348.5 35.3 347.5 36.2 Q 346.6 37.0 345.1 37.0 Z"/>
  <path d="M 388.1 50.3 Q 388.1 54.5 386.7 58.2 Q 385.3 61.8 382.7 64.6 Q 380.2 67.4 376.6 69.0 Q 373.1 70.6 369.0 70.6 Q 364.8 70.6 361.3 69.0 Q 357.8 67.4 355.2 64.6 Q 352.7 61.8 351.3 58.2 Q 349.9 54.5 349.9 50.3 Q 349.9 46.1 351.3 42.4 Q 352.7 38.7 355.2 35.9 Q 357.8 33.2 361.3 31.6 Q 364.8 30.0 369.0 30.0 Q 373.1 30.0 376.6 31.6 Q 380.2 33.2 382.7 35.9 Q 385.3 38.7 386.7 42.4 Q 388.1 46.1 388.1 50.3 Z M 380.8 50.3 Q 380.8 46.5 379.3 43.4 Q 377.7 40.4 375.1 38.6 Q 372.5 36.8 369.0 36.8 Q 365.5 36.8 362.8 38.6 Q 360.2 40.4 358.7 43.4 Q 357.2 46.5 357.2 50.3 Q 357.2 54.1 358.7 57.1 Q 360.2 60.2 362.8 62.0 Q 365.5 63.8 369.0 63.8 Q 372.5 63.8 375.1 62.0 Q 377.7 60.2 379.3 57.1 Q 380.8 54.1 380.8 50.3 Z"/>
  </g>
</svg>